<svg xmlns="http://www.w3.org/2000/svg" xmlns:xlink="http://www.w3.org/1999/xlink" width="1500" zoomAndPan="magnify" viewBox="0 0 1125 225" height="300" preserveAspectRatio="xMidYMid meet" version="1.0"><defs><g/><clipPath id="b861308407"><path d="M 31.851562 8.515625 L 242.878906 8.515625 L 242.878906 220.515625 L 31.851562 220.515625 Z M 31.851562 8.515625 " clip-rule="nonzero"/></clipPath><clipPath id="a40a015a3b"><path d="M 137.367188 8.515625 C 79.09375 8.515625 31.851562 55.964844 31.851562 114.492188 C 31.851562 173.019531 79.09375 220.46875 137.367188 220.46875 C 195.640625 220.46875 242.878906 173.019531 242.878906 114.492188 C 242.878906 55.964844 195.640625 8.515625 137.367188 8.515625 Z M 137.367188 8.515625 " clip-rule="nonzero"/></clipPath><clipPath id="0900edb8df"><path d="M 137.367188 8.515625 C 79.09375 8.515625 31.851562 55.964844 31.851562 114.492188 C 31.851562 173.019531 79.09375 220.46875 137.367188 220.46875 C 195.640625 220.46875 242.878906 173.019531 242.878906 114.492188 C 242.878906 55.964844 195.640625 8.515625 137.367188 8.515625 Z M 137.367188 8.515625 " clip-rule="nonzero"/></clipPath><clipPath id="c8e8e970d8"><path d="M 7.117188 141.730469 L 95.855469 141.730469 L 95.855469 195.015625 L 7.117188 195.015625 Z M 7.117188 141.730469 " clip-rule="nonzero"/></clipPath><clipPath id="17c85284b3"><path d="M 51.480469 141.730469 L 95.847656 195.015625 L 7.117188 195.015625 Z M 51.480469 141.730469 " clip-rule="nonzero"/></clipPath><clipPath id="5a8cf1c3ba"><path d="M 51.480469 141.730469 L 95.847656 195.015625 L 7.117188 195.015625 Z M 51.480469 141.730469 " clip-rule="nonzero"/></clipPath><clipPath id="a4f6b7ac3c"><path d="M 51.996094 29.457031 L 221.917969 29.457031 L 221.917969 198.601562 L 51.996094 198.601562 Z M 51.996094 29.457031 " clip-rule="nonzero"/></clipPath><clipPath id="2aacee6f43"><path d="M 136.910156 29.457031 C 90.011719 29.457031 51.996094 67.320312 51.996094 114.027344 C 51.996094 160.734375 90.011719 198.601562 136.910156 198.601562 C 183.808594 198.601562 221.824219 160.734375 221.824219 114.027344 C 221.824219 67.320312 183.808594 29.457031 136.910156 29.457031 Z M 136.910156 29.457031 " clip-rule="nonzero"/></clipPath><clipPath id="072db8e46d"><path d="M 136.910156 29.457031 C 90.011719 29.457031 51.996094 67.320312 51.996094 114.027344 C 51.996094 160.734375 90.011719 198.601562 136.910156 198.601562 C 183.808594 198.601562 221.824219 160.734375 221.824219 114.027344 C 221.824219 67.320312 183.808594 29.457031 136.910156 29.457031 Z M 136.910156 29.457031 " clip-rule="nonzero"/></clipPath><clipPath id="8414754834"><path d="M 35 135.554688 L 123.488281 135.554688 L 123.488281 189.714844 L 35 189.714844 Z M 35 135.554688 " clip-rule="nonzero"/></clipPath><clipPath id="a3f024f921"><path d="M 35.363281 135.453125 L 123.828125 135.929688 L 123.542969 189.554688 L 35.074219 189.078125 Z M 35.363281 135.453125 " clip-rule="nonzero"/></clipPath><clipPath id="db48a06b80"><path d="M 79.5625 135.691406 L 123.46875 189.554688 L 35.074219 189.078125 Z M 79.5625 135.691406 " clip-rule="nonzero"/></clipPath><clipPath id="694153b95b"><path d="M 35.363281 135.453125 L 123.828125 135.929688 L 123.542969 189.554688 L 35.074219 189.078125 Z M 35.363281 135.453125 " clip-rule="nonzero"/></clipPath><clipPath id="b9f262037e"><path d="M 79.5625 135.691406 L 123.46875 189.554688 L 35.074219 189.078125 Z M 79.5625 135.691406 " clip-rule="nonzero"/></clipPath><clipPath id="95326385e2"><path d="M 235.355469 27.414062 L 270.398438 27.414062 L 270.398438 62.519531 L 235.355469 62.519531 Z M 235.355469 27.414062 " clip-rule="nonzero"/></clipPath><clipPath id="15633f0162"><path d="M 252.878906 27.414062 C 243.199219 27.414062 235.355469 35.269531 235.355469 44.964844 C 235.355469 54.660156 243.199219 62.519531 252.878906 62.519531 C 262.554688 62.519531 270.398438 54.660156 270.398438 44.964844 C 270.398438 35.269531 262.554688 27.414062 252.878906 27.414062 Z M 252.878906 27.414062 " clip-rule="nonzero"/></clipPath><clipPath id="99567482f7"><path d="M 252.878906 27.414062 C 243.199219 27.414062 235.355469 35.269531 235.355469 44.964844 C 235.355469 54.660156 243.199219 62.519531 252.878906 62.519531 C 262.554688 62.519531 270.398438 54.660156 270.398438 44.964844 C 270.398438 35.269531 262.554688 27.414062 252.878906 27.414062 Z M 252.878906 27.414062 " clip-rule="nonzero"/></clipPath><clipPath id="224e8ac6ee"><path d="M 6.351562 191.636719 L 19.355469 191.636719 L 19.355469 205.171875 L 6.351562 205.171875 Z M 6.351562 191.636719 " clip-rule="nonzero"/></clipPath><clipPath id="4d67e66abd"><path d="M 12.851562 191.636719 C 9.261719 191.636719 6.351562 194.664062 6.351562 198.394531 C 6.351562 202.125 9.261719 205.148438 12.851562 205.148438 C 16.445312 205.148438 19.355469 202.125 19.355469 198.394531 C 19.355469 194.664062 16.445312 191.636719 12.851562 191.636719 Z M 12.851562 191.636719 " clip-rule="nonzero"/></clipPath><clipPath id="003e29e1d2"><path d="M 12.851562 191.636719 C 9.261719 191.636719 6.351562 194.664062 6.351562 198.394531 C 6.351562 202.125 9.261719 205.148438 12.851562 205.148438 C 16.445312 205.148438 19.355469 202.125 19.355469 198.394531 C 19.355469 194.664062 16.445312 191.636719 12.851562 191.636719 Z M 12.851562 191.636719 " clip-rule="nonzero"/></clipPath><clipPath id="79c8adb030"><path d="M 13.0625 191.636719 L 83.386719 191.636719 L 83.386719 205.121094 L 13.0625 205.121094 Z M 13.0625 191.636719 " clip-rule="nonzero"/></clipPath><clipPath id="7d74c35b9c"><path d="M 84.683594 86.386719 L 120.085938 86.386719 L 120.085938 121.84375 L 84.683594 121.84375 Z M 84.683594 86.386719 " clip-rule="nonzero"/></clipPath><clipPath id="3181f3adf2"><path d="M 102.382812 86.386719 C 92.609375 86.386719 84.683594 94.324219 84.683594 104.113281 C 84.683594 113.90625 92.609375 121.84375 102.382812 121.84375 C 112.160156 121.84375 120.085938 113.90625 120.085938 104.113281 C 120.085938 94.324219 112.160156 86.386719 102.382812 86.386719 Z M 102.382812 86.386719 " clip-rule="nonzero"/></clipPath><clipPath id="3202137c95"><path d="M 102.382812 86.386719 C 92.609375 86.386719 84.683594 94.324219 84.683594 104.113281 C 84.683594 113.90625 92.609375 121.84375 102.382812 121.84375 C 112.160156 121.84375 120.085938 113.90625 120.085938 104.113281 C 120.085938 94.324219 112.160156 86.386719 102.382812 86.386719 Z M 102.382812 86.386719 " clip-rule="nonzero"/></clipPath><clipPath id="4b27c7a057"><path d="M 153.0625 86.5 L 188.464844 86.5 L 188.464844 121.957031 L 153.0625 121.957031 Z M 153.0625 86.5 " clip-rule="nonzero"/></clipPath><clipPath id="ea1928924d"><path d="M 170.765625 86.5 C 160.992188 86.5 153.0625 94.4375 153.0625 104.230469 C 153.0625 114.019531 160.992188 121.957031 170.765625 121.957031 C 180.542969 121.957031 188.464844 114.019531 188.464844 104.230469 C 188.464844 94.4375 180.542969 86.5 170.765625 86.5 Z M 170.765625 86.5 " clip-rule="nonzero"/></clipPath><clipPath id="2d87beebd2"><path d="M 170.765625 86.5 C 160.992188 86.5 153.0625 94.4375 153.0625 104.230469 C 153.0625 114.019531 160.992188 121.957031 170.765625 121.957031 C 180.542969 121.957031 188.464844 114.019531 188.464844 104.230469 C 188.464844 94.4375 180.542969 86.5 170.765625 86.5 Z M 170.765625 86.5 " clip-rule="nonzero"/></clipPath><clipPath id="6e8aef4595"><rect x="0" width="45" y="0" height="36"/></clipPath><clipPath id="e9deba07c4"><rect x="0" width="829" y="0" height="182"/></clipPath></defs><g clip-path="url(#b861308407)"><g clip-path="url(#a40a015a3b)"><g clip-path="url(#0900edb8df)"><path fill="#000000" d="M 31.851562 8.515625 L 242.878906 8.515625 L 242.878906 220.707031 L 31.851562 220.707031 Z M 31.851562 8.515625 " fill-opacity="1" fill-rule="nonzero"/></g></g></g><g clip-path="url(#c8e8e970d8)"><g clip-path="url(#17c85284b3)"><g clip-path="url(#5a8cf1c3ba)"><path fill="#000000" d="M 7.117188 141.730469 L 95.855469 141.730469 L 95.855469 195.015625 L 7.117188 195.015625 Z M 7.117188 141.730469 " fill-opacity="1" fill-rule="nonzero"/></g></g></g><g clip-path="url(#a4f6b7ac3c)"><g clip-path="url(#2aacee6f43)"><g clip-path="url(#072db8e46d)"><path fill="#52bd68" d="M 51.996094 29.457031 L 221.527344 29.457031 L 221.527344 198.601562 L 51.996094 198.601562 Z M 51.996094 29.457031 " fill-opacity="1" fill-rule="nonzero"/></g></g></g><g clip-path="url(#8414754834)"><g clip-path="url(#a3f024f921)"><g clip-path="url(#db48a06b80)"><g clip-path="url(#694153b95b)"><g clip-path="url(#b9f262037e)"><path fill="#52bd68" d="M 35.363281 135.453125 L 123.828125 135.929688 L 123.542969 189.554688 L 35.074219 189.078125 Z M 35.363281 135.453125 " fill-opacity="1" fill-rule="nonzero"/></g></g></g></g></g><g clip-path="url(#95326385e2)"><g clip-path="url(#15633f0162)"><g clip-path="url(#99567482f7)"><path fill="#000000" d="M 235.355469 27.414062 L 270.398438 27.414062 L 270.398438 62.519531 L 235.355469 62.519531 Z M 235.355469 27.414062 " fill-opacity="1" fill-rule="nonzero"/></g></g></g><g clip-path="url(#224e8ac6ee)"><g clip-path="url(#4d67e66abd)"><g clip-path="url(#003e29e1d2)"><path fill="#000000" d="M 6.351562 191.636719 L 19.355469 191.636719 L 19.355469 205.125 L 6.351562 205.125 Z M 6.351562 191.636719 " fill-opacity="1" fill-rule="nonzero"/></g></g></g><g clip-path="url(#79c8adb030)"><path fill="#000000" d="M 13.0625 191.636719 L 83.410156 191.636719 L 83.410156 205.121094 L 13.0625 205.121094 Z M 13.0625 191.636719 " fill-opacity="1" fill-rule="nonzero"/></g><g clip-path="url(#7d74c35b9c)"><g clip-path="url(#3181f3adf2)"><g clip-path="url(#3202137c95)"><path fill="#000000" d="M 84.683594 86.386719 L 120.085938 86.386719 L 120.085938 121.84375 L 84.683594 121.84375 Z M 84.683594 86.386719 " fill-opacity="1" fill-rule="nonzero"/></g></g></g><g clip-path="url(#4b27c7a057)"><g clip-path="url(#ea1928924d)"><g clip-path="url(#2d87beebd2)"><path fill="#000000" d="M 153.0625 86.5 L 188.464844 86.5 L 188.464844 121.957031 L 153.0625 121.957031 Z M 153.0625 86.5 " fill-opacity="1" fill-rule="nonzero"/></g></g></g><g transform="matrix(1, 0, 0, 1, 1072, 95)"><g clip-path="url(#6e8aef4595)"><g fill="#000000" fill-opacity="1"><g transform="translate(0.932729, 24.707235)"><g><path d="M 17.09375 -16.90625 L 10.875 -16.90625 L 10.875 0 L 6.6875 0 L 6.6875 -16.90625 L 0.5625 -16.90625 L 0.5625 -20.296875 L 17.09375 -20.296875 Z M 17.09375 -16.90625 "/></g></g></g><g fill="#000000" fill-opacity="1"><g transform="translate(18.58879, 24.707235)"><g><path d="M 7.28125 -20.296875 L 12.484375 -5.578125 L 17.671875 -20.296875 L 23.171875 -20.296875 L 23.171875 0 L 18.96875 0 L 18.96875 -5.546875 L 19.390625 -15.125 L 13.90625 0 L 11.046875 0 L 5.578125 -15.109375 L 6 -5.546875 L 6 0 L 1.8125 0 L 1.8125 -20.296875 Z M 7.28125 -20.296875 "/></g></g></g></g></g><g transform="matrix(1, 0, 0, 1, 254, 43)"><g clip-path="url(#e9deba07c4)"><g fill="#000000" fill-opacity="1"><g transform="translate(0.846532, 144.659542)"><g><path d="M 62.703125 2.09375 C 51.734375 2.09375 41.878906 -0.222656 33.140625 -4.859375 C 24.410156 -9.503906 17.550781 -15.96875 12.5625 -24.25 C 7.582031 -32.53125 5.09375 -41.90625 5.09375 -52.375 C 5.09375 -62.851562 7.582031 -72.234375 12.5625 -80.515625 C 17.550781 -88.796875 24.410156 -95.253906 33.140625 -99.890625 C 41.878906 -104.535156 51.734375 -106.859375 62.703125 -106.859375 C 72.285156 -106.859375 80.914062 -105.160156 88.59375 -101.765625 C 96.28125 -98.367188 102.664062 -93.476562 107.75 -87.09375 L 88.890625 -70.046875 C 82.109375 -78.222656 73.878906 -82.3125 64.203125 -82.3125 C 58.515625 -82.3125 53.453125 -81.0625 49.015625 -78.5625 C 44.578125 -76.070312 41.132812 -72.554688 38.6875 -68.015625 C 36.238281 -63.472656 35.015625 -58.257812 35.015625 -52.375 C 35.015625 -46.488281 36.238281 -41.273438 38.6875 -36.734375 C 41.132812 -32.203125 44.578125 -28.6875 49.015625 -26.1875 C 53.453125 -23.695312 58.515625 -22.453125 64.203125 -22.453125 C 73.878906 -22.453125 82.109375 -26.539062 88.890625 -34.71875 L 107.75 -17.65625 C 102.664062 -11.269531 96.28125 -6.378906 88.59375 -2.984375 C 80.914062 0.398438 72.285156 2.09375 62.703125 2.09375 Z M 62.703125 2.09375 "/></g></g></g><g fill="#000000" fill-opacity="1"><g transform="translate(111.288381, 144.659542)"><g><path d="M 61.953125 -82.453125 C 72.035156 -82.453125 80.144531 -79.457031 86.28125 -73.46875 C 92.414062 -67.488281 95.484375 -58.460938 95.484375 -46.390625 L 95.484375 0 L 67.046875 0 L 67.046875 -41.75 C 67.046875 -52.820312 62.609375 -58.359375 53.734375 -58.359375 C 48.835938 -58.359375 44.914062 -56.757812 41.96875 -53.5625 C 39.03125 -50.375 37.5625 -45.585938 37.5625 -39.203125 L 37.5625 0 L 9.125 0 L 9.125 -111.046875 L 37.5625 -111.046875 L 37.5625 -73.625 C 40.65625 -76.519531 44.296875 -78.710938 48.484375 -80.203125 C 52.679688 -81.703125 57.171875 -82.453125 61.953125 -82.453125 Z M 61.953125 -82.453125 "/></g></g></g><g fill="#000000" fill-opacity="1"><g transform="translate(215.444919, 144.659542)"><g><path d="M 43.703125 -82.453125 C 57.171875 -82.453125 67.445312 -79.382812 74.53125 -73.25 C 81.613281 -67.113281 85.15625 -57.710938 85.15625 -45.046875 L 85.15625 0 L 58.671875 0 L 58.671875 -10.46875 C 54.578125 -2.59375 46.59375 1.34375 34.71875 1.34375 C 28.4375 1.34375 23 0.246094 18.40625 -1.9375 C 13.820312 -4.132812 10.351562 -7.101562 8 -10.84375 C 5.65625 -14.59375 4.484375 -18.859375 4.484375 -23.640625 C 4.484375 -31.328125 7.425781 -37.289062 13.3125 -41.53125 C 19.207031 -45.769531 28.289062 -47.890625 40.5625 -47.890625 L 56.71875 -47.890625 C 56.21875 -56.472656 50.484375 -60.765625 39.515625 -60.765625 C 35.617188 -60.765625 31.675781 -60.140625 27.6875 -58.890625 C 23.695312 -57.640625 20.304688 -55.921875 17.515625 -53.734375 L 7.9375 -73.03125 C 12.425781 -76.019531 17.882812 -78.335938 24.3125 -79.984375 C 30.75 -81.628906 37.210938 -82.453125 43.703125 -82.453125 Z M 42.65625 -16.609375 C 45.945312 -16.609375 48.835938 -17.40625 51.328125 -19 C 53.828125 -20.601562 55.625 -22.953125 56.71875 -26.046875 L 56.71875 -33.078125 L 44.453125 -33.078125 C 36.171875 -33.078125 32.03125 -30.332031 32.03125 -24.84375 C 32.03125 -22.34375 32.976562 -20.34375 34.875 -18.84375 C 36.769531 -17.351562 39.363281 -16.609375 42.65625 -16.609375 Z M 42.65625 -16.609375 "/></g></g></g><g fill="#000000" fill-opacity="1"><g transform="translate(309.425235, 144.659542)"><g><path d="M 65.09375 -3.296875 C 62.707031 -1.796875 59.789062 -0.648438 56.34375 0.140625 C 52.90625 0.941406 49.238281 1.34375 45.34375 1.34375 C 34.769531 1.34375 26.640625 -1.25 20.953125 -6.4375 C 15.265625 -11.625 12.421875 -19.351562 12.421875 -29.625 L 12.421875 -56.875 L 0.59375 -56.875 L 0.59375 -78.125 L 12.421875 -78.125 L 12.421875 -99.21875 L 40.859375 -99.21875 L 40.859375 -78.125 L 59.40625 -78.125 L 59.40625 -56.875 L 40.859375 -56.875 L 40.859375 -29.9375 C 40.859375 -27.039062 41.628906 -24.769531 43.171875 -23.125 C 44.722656 -21.476562 46.796875 -20.65625 49.390625 -20.65625 C 52.679688 -20.65625 55.570312 -21.503906 58.0625 -23.203125 Z M 65.09375 -3.296875 "/></g></g></g><g fill="#000000" fill-opacity="1"><g transform="translate(376.318907, 144.659542)"><g><path d="M 62.703125 2.09375 C 51.734375 2.09375 41.878906 -0.222656 33.140625 -4.859375 C 24.410156 -9.503906 17.550781 -15.96875 12.5625 -24.25 C 7.582031 -32.53125 5.09375 -41.90625 5.09375 -52.375 C 5.09375 -62.851562 7.582031 -72.234375 12.5625 -80.515625 C 17.550781 -88.796875 24.410156 -95.253906 33.140625 -99.890625 C 41.878906 -104.535156 51.734375 -106.859375 62.703125 -106.859375 C 72.285156 -106.859375 80.914062 -105.160156 88.59375 -101.765625 C 96.28125 -98.367188 102.664062 -93.476562 107.75 -87.09375 L 88.890625 -70.046875 C 82.109375 -78.222656 73.878906 -82.3125 64.203125 -82.3125 C 58.515625 -82.3125 53.453125 -81.0625 49.015625 -78.5625 C 44.578125 -76.070312 41.132812 -72.554688 38.6875 -68.015625 C 36.238281 -63.472656 35.015625 -58.257812 35.015625 -52.375 C 35.015625 -46.488281 36.238281 -41.273438 38.6875 -36.734375 C 41.132812 -32.203125 44.578125 -28.6875 49.015625 -26.1875 C 53.453125 -23.695312 58.515625 -22.453125 64.203125 -22.453125 C 73.878906 -22.453125 82.109375 -26.539062 88.890625 -34.71875 L 107.75 -17.65625 C 102.664062 -11.269531 96.28125 -6.378906 88.59375 -2.984375 C 80.914062 0.398438 72.285156 2.09375 62.703125 2.09375 Z M 62.703125 2.09375 "/></g></g></g><g fill="#000000" fill-opacity="1"><g transform="translate(486.760741, 144.659542)"><g><path d="M 9.125 -111.046875 L 37.5625 -111.046875 L 37.5625 0 L 9.125 0 Z M 9.125 -111.046875 "/></g></g></g><g fill="#000000" fill-opacity="1"><g transform="translate(533.601237, 144.659542)"><g><path d="M 92.03125 -40.40625 C 92.03125 -40.207031 91.882812 -37.863281 91.59375 -33.375 L 32.625 -33.375 C 33.820312 -29.1875 36.140625 -25.96875 39.578125 -23.71875 C 43.023438 -21.476562 47.34375 -20.359375 52.53125 -20.359375 C 56.414062 -20.359375 59.78125 -20.90625 62.625 -22 C 65.46875 -23.09375 68.335938 -24.890625 71.234375 -27.390625 L 86.203125 -11.828125 C 78.316406 -3.046875 66.789062 1.34375 51.625 1.34375 C 42.15625 1.34375 33.828125 -0.445312 26.640625 -4.03125 C 19.453125 -7.625 13.890625 -12.613281 9.953125 -19 C 6.015625 -25.382812 4.046875 -32.617188 4.046875 -40.703125 C 4.046875 -48.679688 5.960938 -55.835938 9.796875 -62.171875 C 13.640625 -68.515625 18.953125 -73.476562 25.734375 -77.0625 C 32.523438 -80.65625 40.160156 -82.453125 48.640625 -82.453125 C 56.722656 -82.453125 64.054688 -80.78125 70.640625 -77.4375 C 77.222656 -74.101562 82.429688 -69.265625 86.265625 -62.921875 C 90.109375 -56.585938 92.03125 -49.082031 92.03125 -40.40625 Z M 48.78125 -62.25 C 44.394531 -62.25 40.726562 -61.003906 37.78125 -58.515625 C 34.84375 -56.023438 32.972656 -52.632812 32.171875 -48.34375 L 65.40625 -48.34375 C 64.601562 -52.632812 62.726562 -56.023438 59.78125 -58.515625 C 56.84375 -61.003906 53.175781 -62.25 48.78125 -62.25 Z M 48.78125 -62.25 "/></g></g></g><g fill="#000000" fill-opacity="1"><g transform="translate(629.676666, 144.659542)"><g><path d="M 43.703125 -82.453125 C 57.171875 -82.453125 67.445312 -79.382812 74.53125 -73.25 C 81.613281 -67.113281 85.15625 -57.710938 85.15625 -45.046875 L 85.15625 0 L 58.671875 0 L 58.671875 -10.46875 C 54.578125 -2.59375 46.59375 1.34375 34.71875 1.34375 C 28.4375 1.34375 23 0.246094 18.40625 -1.9375 C 13.820312 -4.132812 10.351562 -7.101562 8 -10.84375 C 5.65625 -14.59375 4.484375 -18.859375 4.484375 -23.640625 C 4.484375 -31.328125 7.425781 -37.289062 13.3125 -41.53125 C 19.207031 -45.769531 28.289062 -47.890625 40.5625 -47.890625 L 56.71875 -47.890625 C 56.21875 -56.472656 50.484375 -60.765625 39.515625 -60.765625 C 35.617188 -60.765625 31.675781 -60.140625 27.6875 -58.890625 C 23.695312 -57.640625 20.304688 -55.921875 17.515625 -53.734375 L 7.9375 -73.03125 C 12.425781 -76.019531 17.882812 -78.335938 24.3125 -79.984375 C 30.75 -81.628906 37.210938 -82.453125 43.703125 -82.453125 Z M 42.65625 -16.609375 C 45.945312 -16.609375 48.835938 -17.40625 51.328125 -19 C 53.828125 -20.601562 55.625 -22.953125 56.71875 -26.046875 L 56.71875 -33.078125 L 44.453125 -33.078125 C 36.171875 -33.078125 32.03125 -30.332031 32.03125 -24.84375 C 32.03125 -22.34375 32.976562 -20.34375 34.875 -18.84375 C 36.769531 -17.351562 39.363281 -16.609375 42.65625 -16.609375 Z M 42.65625 -16.609375 "/></g></g></g><g fill="#000000" fill-opacity="1"><g transform="translate(723.657011, 144.659542)"><g><path d="M 61.953125 -82.453125 C 72.035156 -82.453125 80.144531 -79.457031 86.28125 -73.46875 C 92.414062 -67.488281 95.484375 -58.460938 95.484375 -46.390625 L 95.484375 0 L 67.046875 0 L 67.046875 -41.75 C 67.046875 -52.820312 62.609375 -58.359375 53.734375 -58.359375 C 48.835938 -58.359375 44.914062 -56.757812 41.96875 -53.5625 C 39.03125 -50.375 37.5625 -45.585938 37.5625 -39.203125 L 37.5625 0 L 9.125 0 L 9.125 -81.109375 L 36.21875 -81.109375 L 36.21875 -72.28125 C 39.40625 -75.570312 43.191406 -78.085938 47.578125 -79.828125 C 51.972656 -81.578125 56.765625 -82.453125 61.953125 -82.453125 Z M 61.953125 -82.453125 "/></g></g></g></g></g></svg>